<svg width="2418" height="464" viewBox="0 0 2418 464" fill="none" xmlns="http://www.w3.org/2000/svg">
<path d="M144.721 318.855C142.898 318.855 141.424 320.325 141.424 322.157V346.907C141.424 348.738 142.897 350.222 144.721 350.222C146.543 350.222 148.013 348.738 148.013 346.907V322.157C148.024 320.325 146.543 318.855 144.721 318.855Z" fill="#111111"/>
<path d="M175.872 318.855C174.051 318.855 172.577 320.325 172.577 322.157V346.907C172.577 348.738 174.062 350.222 175.872 350.222C177.694 350.222 179.163 348.738 179.163 346.907V322.157C179.163 320.325 177.693 318.855 175.872 318.855Z" fill="#111111"/>
<path d="M144.721 370.167C142.898 370.167 141.424 371.648 141.424 373.457V398.224C141.424 400.04 142.897 401.508 144.721 401.508C146.543 401.508 148.013 400.038 148.013 398.224V373.457C148.024 371.648 146.543 370.167 144.721 370.167Z" fill="#111111"/>
<path d="M175.872 370.167C174.051 370.167 172.577 371.648 172.577 373.457V398.224C172.577 400.04 174.062 401.508 175.872 401.508C177.694 401.508 179.163 400.038 179.163 398.224V373.457C179.163 371.648 177.693 370.167 175.872 370.167Z" fill="#111111"/>
<path d="M144.721 421.471C142.898 421.471 141.424 422.946 141.424 424.783V449.533C141.424 451.364 142.897 452.834 144.721 452.834C146.543 452.834 148.013 451.364 148.013 449.533V424.783C148.024 422.946 146.543 421.471 144.721 421.471Z" fill="#111111"/>
<path d="M175.872 421.471C174.051 421.471 172.577 422.946 172.577 424.783V449.533C172.577 451.364 174.062 452.834 175.872 452.834C177.694 452.834 179.163 451.364 179.163 449.533V424.783C179.163 422.946 177.693 421.471 175.872 421.471Z" fill="#111111"/>
<path d="M64.6722 421.471C62.8493 421.471 61.3765 422.946 61.3765 424.783V449.533C61.3765 451.364 62.8493 452.834 64.6722 452.834C66.4937 452.834 67.9624 451.364 67.9624 449.533V424.783C67.9637 422.946 66.4937 421.471 64.6722 421.471Z" fill="#111111"/>
<path d="M95.8231 421.471C94.0029 421.471 92.5273 422.946 92.5273 424.783V449.533C92.5273 451.364 94.0029 452.834 95.8231 452.834C97.6446 452.834 99.1146 451.364 99.1146 449.533V424.783C99.1132 422.946 97.6432 421.471 95.8231 421.471Z" fill="#111111"/>
<path d="M323.905 457.184H277.545V355.128C277.545 353.297 276.075 351.827 274.242 351.827H206.441C204.643 351.827 203.151 353.297 203.151 355.128V457.184H197.465V306.583C197.465 304.734 195.994 303.264 194.186 303.264H161.429V290.382C164.55 293.492 168.847 295.424 173.595 295.424C183.117 295.424 190.862 287.676 190.862 278.169C190.862 268.645 183.128 260.892 173.595 260.892C166.786 260.892 160.939 264.881 158.138 270.627C155.327 264.911 149.487 260.892 142.68 260.892C133.159 260.892 125.414 268.645 125.414 278.169C125.414 287.688 133.16 295.424 142.68 295.424C147.428 295.424 151.723 293.492 154.841 290.382V303.264H126.417C124.594 303.264 123.123 304.734 123.123 306.583V457.184H117.451V407.346C117.451 405.535 115.964 404.067 114.155 404.067H46.3652C44.5437 404.067 43.0736 405.537 43.0736 407.346V457.184H3.29155C1.47001 457.184 0 458.665 0 460.497C0 462.328 1.48391 463.798 3.29155 463.798H46.3763C48.1992 463.798 49.6734 462.328 49.6734 460.497V410.645H110.875V460.497C110.875 462.328 112.345 463.798 114.168 463.798H126.425C128.248 463.798 129.725 462.328 129.725 460.497V309.884H190.913V460.497C190.913 462.328 192.394 463.798 194.203 463.798H206.476C208.307 463.798 209.777 462.328 209.777 460.497V358.435H270.987V460.497C270.987 462.328 272.457 463.798 274.266 463.798H323.944C325.765 463.798 327.234 462.328 327.234 460.497C327.234 458.665 325.712 457.184 323.905 457.184ZM173.584 267.512C179.474 267.512 184.258 272.289 184.258 278.189C184.258 284.069 179.485 288.869 173.584 288.869C167.682 288.869 162.903 284.08 162.903 278.189C162.905 272.289 167.693 267.512 173.584 267.512ZM142.671 288.857C136.779 288.857 131.993 284.08 131.993 278.18C131.993 272.278 136.779 267.501 142.671 267.501C148.562 267.501 153.35 272.278 153.35 278.18C153.339 284.069 148.551 288.857 142.671 288.857Z" fill="#111111"/>
<path d="M224.776 370.167C222.966 370.167 221.497 371.648 221.497 373.457V398.224C221.497 400.04 222.967 401.508 224.776 401.508C226.607 401.508 228.079 400.038 228.079 398.224V373.457C228.079 371.648 226.587 370.167 224.776 370.167Z" fill="#111111"/>
<path d="M255.924 370.167C254.098 370.167 252.627 371.648 252.627 373.457V398.224C252.627 400.04 254.098 401.508 255.924 401.508C257.746 401.508 259.225 400.038 259.225 398.224V373.457C259.225 371.648 257.744 370.167 255.924 370.167Z" fill="#111111"/>
<path d="M224.776 421.471C222.966 421.471 221.497 422.946 221.497 424.783V449.533C221.497 451.364 222.967 452.834 224.776 452.834C226.607 452.834 228.079 451.364 228.079 449.533V424.783C228.079 422.946 226.587 421.471 224.776 421.471Z" fill="#111111"/>
<path d="M255.924 421.471C254.098 421.471 252.627 422.946 252.627 424.783V449.533C252.627 451.364 254.098 452.834 255.924 452.834C257.746 452.834 259.225 451.364 259.225 449.533V424.783C259.225 422.946 257.744 421.471 255.924 421.471Z" fill="#111111"/>
<path d="M378.619 318.344L364.399 312.191V325.864L378.619 331.526V318.344Z" fill="#111111"/>
<path d="M378.619 351.343L392.823 357.015V343.833L378.619 337.681V351.343Z" fill="#111111"/>
<path d="M388.445 362.844L374.238 356.686V370.358L388.445 376.023V362.844Z" fill="#111111"/>
<path d="M364.399 396.389L378.619 402.054V388.872L364.399 382.72V396.389Z" fill="#111111"/>
<path d="M374.789 429.836L388.99 435.501V422.319L374.789 416.17V429.836Z" fill="#111111"/>
<path d="M421.933 344.755L399.377 359.532V463.798H421.933V354.041L437.463 360.567V463.798H444.024V363.329V359.272V355.566L421.933 344.755ZM409.362 444.562L401.225 449.002V437.536L409.362 432.918V444.562ZM409.362 426.959L401.225 431.393V419.933L409.362 415.315V426.959ZM409.362 409.353L401.225 413.79V402.32L409.362 397.706V409.353ZM409.362 391.744L401.225 396.181V384.718L409.362 380.097V391.744ZM409.362 374.137L401.225 378.578V367.105L409.362 362.491V374.137ZM418.79 439.767L410.66 444.207V432.741L418.79 428.124V439.767ZM418.79 422.164L410.66 426.595V415.135L418.79 410.514V422.164ZM418.79 404.552L410.66 408.995V397.526L418.79 392.908V404.552ZM418.79 386.946L410.66 391.386V379.92L418.79 375.305V386.946ZM418.79 369.339L410.66 373.78V362.307L418.79 357.69V369.339Z" fill="#111111"/>
<path d="M355.993 290.053V278.207H349.432V294.354L327.234 308.912V463.041H360.579V300.788L393.234 314.514V303.039L360.579 287.053L355.993 290.053ZM341.982 434.614L329.962 441.169V424.224L341.982 417.397V434.614ZM341.982 408.577L329.962 415.138V398.19L341.982 391.363V408.577ZM341.982 382.549L329.962 389.11V372.162L341.982 365.336V382.549ZM341.982 356.521L329.962 363.079V346.131L341.982 339.301V356.521ZM341.982 330.494L329.962 337.051V320.103L341.982 313.28V330.494ZM355.93 427.522L343.91 434.079V417.135L355.93 410.311V427.522ZM355.93 401.494L343.91 408.045V391.101L355.93 384.274V401.494ZM355.93 375.463L343.91 382.021V365.073L355.93 358.243V375.463ZM355.93 349.432L343.91 355.987V339.039L355.93 332.212V349.432ZM355.93 323.398L343.91 329.952V313.008L355.93 306.178V323.398Z" fill="#111111"/>
<path d="M504.367 103.444L477.651 463.798H444.023L469.034 159.475L504.367 103.444Z" fill="#111111"/>
<path d="M886.267 162.082L906.098 463.798H928.502L907.388 201.745L886.267 162.082Z" fill="#111111"/>
<path d="M606.945 68.9687L541.432 463.798H681.95V0L606.945 68.9687ZM668.163 389.65L562.35 429.296L568.386 387.918L668.172 347.406V389.65H668.163ZM668.163 327.593L569.889 368.095L575.916 326.718L668.163 285.34V327.593ZM668.163 265.535L578.938 304.314L584.975 262.928L668.163 223.291V265.535ZM668.163 204.317L589.72 244.837L595.748 203.451L668.154 162.064L668.163 204.317ZM668.163 141.375L598.761 182.771L604.797 141.393L668.163 99.1403V141.375ZM668.163 80.1748L607.811 120.678L616.428 80.1748L668.163 37.931V80.1748Z" fill="#111111"/>
<path d="M750.052 51.7177L689.7 0V463.798H825.905L750.052 51.7177ZM698.335 37.931L743.15 69.826L751.351 106.9L698.335 75.8532V37.931ZM698.335 99.1403L751.351 124.787L757.803 160.341L698.335 137.071V99.1403ZM698.335 160.341L757.803 182.779L765.969 221.559L698.335 198.281V160.341ZM698.335 221.541L765.969 244.837L774.63 290.289L698.335 263.794V221.541ZM698.335 282.751L776.777 310.783L785.252 353.142L698.343 323.916L698.335 282.751ZM698.335 343.96L785.252 375.431L795.009 414.952L698.343 385.991V343.96H698.335Z" fill="#111111"/>
<path d="M511.26 106.899L483.678 463.798H535.395L542.536 419.822L494.813 407.316L496.536 387.052L545.435 402.014L547.706 388.006L497.447 373.415L499.17 353.151L550.587 370.41L552.876 356.208L499.718 340.637L501.441 320.372L555.722 338.79L558.064 324.42L502.643 307.336L504.367 287.063L560.883 307.169L563.26 292.604L504.375 273.948L506.108 253.683L564.701 275.026V283.687L575.925 214.665V134.49L511.26 106.899ZM565.982 259.914L508.246 239.216L509.97 218.943L565.982 241.806V259.914ZM567.29 226.729L511.136 206.579L512.868 186.314L567.29 208.629V226.729ZM568.589 193.535L514.282 174.145L516.006 153.88L568.598 175.435L568.589 193.535ZM569.889 160.34L515.573 140.96L517.296 120.686L569.897 142.241V160.34H569.889Z" fill="#111111"/>
<path d="M881.954 157.751L817.298 183.61L806.092 323.262L812.101 352.956L884.128 335.157L885.409 358.648L816.255 373.459L819.189 387.935L886.267 374.573L888.352 399.884L823.44 408.987L834.54 463.78H898.339L881.954 157.751ZM823.051 197.662L876.05 178.192L876.978 200.428L821.602 217.14L823.051 197.662ZM820.17 228.735L878.746 210.6L879.895 230.555L818.73 248.195L820.17 228.735ZM817.289 259.799L879.912 240.33L880.867 261.425L815.849 279.268L817.289 259.799ZM814.417 290.872L881.821 271.403L882.599 292.869L812.976 310.35L814.417 290.872ZM810.104 341.405L811.527 321.954L882.599 302.485L884.128 322.979L810.104 341.405Z" fill="#111111"/>
<path d="M1073.68 403.307H1058.55V329.508C1058.55 327.838 1057.2 326.484 1055.53 326.484H1036.48V318.62C1036.48 316.95 1035.12 315.596 1033.45 315.596C1031.78 315.596 1030.43 316.95 1030.43 318.62V326.484H1011.38C1009.71 326.484 1008.35 327.838 1008.35 329.508V364.593H977.499V341.619C977.499 339.949 976.144 338.595 974.474 338.595H931.526C929.856 338.595 928.501 339.949 928.501 341.619V460.773C928.501 462.444 929.856 463.798 931.526 463.798H1073.68C1075.35 463.798 1076.7 462.444 1076.7 460.773V406.332C1076.7 404.661 1075.35 403.307 1073.68 403.307ZM971.45 367.618V457.749H934.551V453.817H951.143C952.813 453.817 954.167 452.463 954.167 450.792C954.167 449.122 952.813 447.768 951.143 447.768H934.551V440.253H951.143C952.813 440.253 954.167 438.899 954.167 437.228C954.167 435.558 952.813 434.204 951.143 434.204H934.551V426.689H951.143C952.813 426.689 954.167 425.335 954.167 423.664C954.167 421.994 952.813 420.64 951.143 420.64H934.551V413.126H951.143C952.813 413.126 954.167 411.771 954.167 410.101C954.167 408.431 952.813 407.076 951.143 407.076H934.551V399.562H951.143C952.813 399.562 954.167 398.207 954.167 396.537C954.167 394.867 952.813 393.512 951.143 393.512H934.551V385.998H951.143C952.813 385.998 954.167 384.643 954.167 382.973C954.167 381.303 952.813 379.948 951.143 379.948H934.551V372.434H951.143C952.813 372.434 954.167 371.08 954.167 369.409C954.167 367.739 952.813 366.385 951.143 366.385H934.551V358.87H951.143C952.813 358.87 954.167 357.516 954.167 355.845C954.167 354.175 952.813 352.821 951.143 352.821H934.551V344.644H971.45V367.618ZM1014.4 332.533H1052.51V403.307H1029.52V367.618C1029.52 365.947 1028.17 364.593 1026.5 364.593H1014.4V332.533ZM1008.95 437.755H986.638V435.342H1008.95V437.755ZM1008.95 419.038H986.576V416.625H1008.95V419.038ZM1008.95 406.332V410.575H983.551C981.881 410.575 980.527 411.929 980.527 413.6V422.062C980.527 423.733 981.881 425.087 983.551 425.087H1008.95V429.293H983.614C981.944 429.293 980.589 430.647 980.589 432.317V440.779C980.589 442.45 981.944 443.804 983.614 443.804H1008.95V457.749H977.499V370.642H1023.47V403.307H1011.98C1010.31 403.307 1008.95 404.661 1008.95 406.332ZM1035.27 457.749H1026.5H1024.97V447.491H1035.27L1035.27 457.749ZM1063.69 457.749H1053.4V447.491H1063.69V457.749ZM1070.65 457.749H1069.74V444.467C1069.74 442.796 1068.39 441.442 1066.72 441.442H1050.37C1048.7 441.442 1047.35 442.796 1047.35 444.467V457.749H1041.32V444.467C1041.32 442.796 1039.97 441.442 1038.3 441.442H1021.95C1020.28 441.442 1018.93 442.796 1018.93 444.467V457.749H1015V409.356H1070.65V457.749Z" fill="#111111"/>
<path d="M1038.3 414.517H1021.95C1020.28 414.517 1018.93 415.871 1018.93 417.541V433.899C1018.93 435.569 1020.28 436.923 1021.95 436.923C1023.62 436.923 1024.97 435.569 1024.97 433.899V420.566H1035.27V423.926C1035.27 425.596 1036.63 426.951 1038.3 426.951C1039.97 426.951 1041.32 425.596 1041.32 423.926V417.541C1041.32 415.871 1039.97 414.517 1038.3 414.517Z" fill="#111111"/>
<path d="M1037.94 430.79C1036.27 430.79 1034.91 432.144 1034.91 433.815V433.899C1034.91 435.57 1036.27 436.924 1037.94 436.924C1039.61 436.924 1040.96 435.57 1040.96 433.899V433.815C1040.96 432.144 1039.61 430.79 1037.94 430.79Z" fill="#111111"/>
<path d="M1066.72 414.517H1050.37C1048.7 414.517 1047.35 415.871 1047.35 417.541V433.899C1047.35 435.569 1048.7 436.923 1050.37 436.923C1052.04 436.923 1053.4 435.569 1053.4 433.899V420.566H1063.69V423.926C1063.69 425.596 1065.05 426.951 1066.72 426.951C1068.39 426.951 1069.74 425.596 1069.74 423.926V417.541C1069.74 415.871 1068.39 414.517 1066.72 414.517Z" fill="#111111"/>
<path d="M1066.36 430.79C1064.69 430.79 1063.33 432.144 1063.33 433.815V433.899C1063.33 435.57 1064.69 436.924 1066.36 436.924C1068.03 436.924 1069.38 435.57 1069.38 433.899V433.815C1069.38 432.144 1068.03 430.79 1066.36 430.79Z" fill="#111111"/>
<path d="M1022.87 341.155C1021.2 341.155 1019.84 342.509 1019.84 344.18V349.019C1019.84 350.689 1021.2 352.044 1022.87 352.044C1024.54 352.044 1025.89 350.689 1025.89 349.019V344.18C1025.89 342.509 1024.54 341.155 1022.87 341.155Z" fill="#111111"/>
<path d="M1033.45 341.155C1031.78 341.155 1030.43 342.509 1030.43 344.18V349.019C1030.43 350.689 1031.78 352.044 1033.45 352.044C1035.12 352.044 1036.48 350.689 1036.48 349.019V344.18C1036.48 342.509 1035.12 341.155 1033.45 341.155Z" fill="#111111"/>
<path d="M1044.04 341.155C1042.37 341.155 1041.01 342.509 1041.01 344.18V349.019C1041.01 350.689 1042.37 352.044 1044.04 352.044C1045.71 352.044 1047.06 350.689 1047.06 349.019V344.18C1047.06 342.509 1045.71 341.155 1044.04 341.155Z" fill="#111111"/>
<path d="M1044.04 359.754C1042.37 359.754 1041.01 361.108 1041.01 362.778V367.618C1041.01 369.288 1042.37 370.642 1044.04 370.642C1045.71 370.642 1047.06 369.288 1047.06 367.618V362.778C1047.06 361.108 1045.71 359.754 1044.04 359.754Z" fill="#111111"/>
<path d="M1044.04 378.809C1042.37 378.809 1041.01 380.163 1041.01 381.833V386.672C1041.01 388.343 1042.37 389.697 1044.04 389.697C1045.71 389.697 1047.06 388.343 1047.06 386.672V381.833C1047.06 380.163 1045.71 378.809 1044.04 378.809Z" fill="#111111"/>
<path d="M1017.42 372.766H983.551C981.881 372.766 980.527 374.12 980.527 375.79V384.252C980.527 385.923 981.881 387.277 983.551 387.277H1017.42C1019.09 387.277 1020.44 385.923 1020.44 384.252V375.79C1020.44 374.12 1019.09 372.766 1017.42 372.766ZM1014.4 381.228H986.576V378.815H1014.4V381.228Z" fill="#111111"/>
<path d="M1017.42 391.587H983.551C981.881 391.587 980.527 392.941 980.527 394.611V403.074C980.527 404.744 981.881 406.098 983.551 406.098H1001.49C1003.16 406.098 1004.52 404.744 1004.52 403.074C1004.52 401.403 1003.16 400.049 1001.49 400.049H986.576V397.636H1014.4V397.913C1014.4 399.584 1015.75 400.938 1017.42 400.938C1019.09 400.938 1020.44 399.584 1020.44 397.913V394.611C1020.44 392.941 1019.09 391.587 1017.42 391.587Z" fill="#111111"/>
<g clip-path="url(#clip0_213_769)">
<path d="M1099.54 317.632C1097.02 317.632 1094.98 319.678 1094.98 322.199V331.335C1094.98 333.856 1097.02 335.902 1099.54 335.902C1102.07 335.902 1104.11 333.856 1104.11 331.335V322.199C1104.11 319.678 1102.07 317.632 1099.54 317.632Z" fill="#111111"/>
<path d="M1099.54 290.226C1097.02 290.226 1094.98 292.272 1094.98 294.793V303.929C1094.98 306.45 1097.02 308.496 1099.54 308.496C1102.07 308.496 1104.11 306.45 1104.11 303.929V294.793C1104.11 292.272 1102.07 290.226 1099.54 290.226Z" fill="#111111"/>
<path d="M1099.54 372.444C1097.02 372.444 1094.98 374.491 1094.98 377.012V386.147C1094.98 388.669 1097.02 390.715 1099.54 390.715C1102.07 390.715 1104.11 388.669 1104.11 386.147V377.012C1104.11 374.491 1102.07 372.444 1099.54 372.444Z" fill="#111111"/>
<path d="M1099.54 345.038C1097.02 345.038 1094.98 347.084 1094.98 349.606V358.741C1094.98 361.262 1097.02 363.309 1099.54 363.309C1102.07 363.309 1104.11 361.262 1104.11 358.741V349.606C1104.11 347.084 1102.07 345.038 1099.54 345.038Z" fill="#111111"/>
<path d="M1099.54 427.256C1097.02 427.256 1094.98 429.302 1094.98 431.823V440.959C1094.98 443.48 1097.02 445.526 1099.54 445.526C1102.07 445.526 1104.11 443.48 1104.11 440.959V431.823C1104.11 429.302 1102.07 427.256 1099.54 427.256Z" fill="#111111"/>
<path d="M1099.54 399.851C1097.02 399.851 1094.98 401.897 1094.98 404.418V413.554C1094.98 416.075 1097.02 418.121 1099.54 418.121C1102.07 418.121 1104.11 416.075 1104.11 413.554V404.418C1104.11 401.897 1102.07 399.851 1099.54 399.851Z" fill="#111111"/>
<path d="M1122.38 317.632C1119.85 317.632 1117.81 319.678 1117.81 322.199V331.335C1117.81 333.856 1119.85 335.902 1122.38 335.902C1124.91 335.902 1126.95 333.856 1126.95 331.335V322.199C1126.95 319.678 1124.91 317.632 1122.38 317.632Z" fill="#111111"/>
<path d="M1122.38 372.444C1119.85 372.444 1117.81 374.491 1117.81 377.012V386.147C1117.81 388.669 1119.85 390.715 1122.38 390.715C1124.91 390.715 1126.95 388.669 1126.95 386.147V377.012C1126.95 374.491 1124.91 372.444 1122.38 372.444Z" fill="#111111"/>
<path d="M1122.38 345.038C1119.85 345.038 1117.81 347.084 1117.81 349.606V358.741C1117.81 361.262 1119.85 363.309 1122.38 363.309C1124.91 363.309 1126.95 361.262 1126.95 358.741V349.606C1126.95 347.084 1124.91 345.038 1122.38 345.038Z" fill="#111111"/>
<path d="M1122.38 399.851C1119.85 399.851 1117.81 401.897 1117.81 404.418V413.554C1117.81 416.075 1119.85 418.121 1122.38 418.121C1124.91 418.121 1126.95 416.075 1126.95 413.554V404.418C1126.95 401.897 1124.91 399.851 1122.38 399.851Z" fill="#111111"/>
<path d="M1122.38 427.256C1119.85 427.256 1117.81 429.302 1117.81 431.823V440.959C1117.81 443.48 1119.85 445.526 1122.38 445.526C1124.91 445.526 1126.95 443.48 1126.95 440.959V431.823C1126.95 429.302 1124.91 427.256 1122.38 427.256Z" fill="#111111"/>
<path d="M1122.38 290.226C1119.85 290.226 1117.81 292.272 1117.81 294.793V303.929C1117.81 306.45 1119.85 308.496 1122.38 308.496C1124.91 308.496 1126.95 306.45 1126.95 303.929V294.793C1126.95 292.272 1124.91 290.226 1122.38 290.226Z" fill="#111111"/>
<path d="M1232 367.877C1229.48 367.877 1227.44 369.923 1227.44 372.444V381.58C1227.44 384.101 1229.48 386.147 1232 386.147C1234.53 386.147 1236.57 384.101 1236.57 381.58V372.444C1236.57 369.923 1234.53 367.877 1232 367.877Z" fill="#111111"/>
<path d="M1232 340.471C1229.48 340.471 1227.44 342.517 1227.44 345.038V354.174C1227.44 356.695 1229.48 358.741 1232 358.741C1234.53 358.741 1236.57 356.695 1236.57 354.174V345.038C1236.57 342.517 1234.53 340.471 1232 340.471Z" fill="#111111"/>
<path d="M1232 285.658C1229.48 285.658 1227.44 287.705 1227.44 290.226V299.361C1227.44 301.882 1229.48 303.929 1232 303.929C1234.53 303.929 1236.57 301.882 1236.57 299.361V290.226C1236.57 287.705 1234.53 285.658 1232 285.658Z" fill="#111111"/>
<path d="M1232 313.064C1229.48 313.064 1227.44 315.111 1227.44 317.632V326.767C1227.44 329.289 1229.48 331.335 1232 331.335C1234.53 331.335 1236.57 329.289 1236.57 326.767V317.632C1236.57 315.111 1234.53 313.064 1232 313.064Z" fill="#111111"/>
<path d="M1232 395.282C1229.48 395.282 1227.44 397.329 1227.44 399.85V408.985C1227.44 411.506 1229.48 413.553 1232 413.553C1234.53 413.553 1236.57 411.506 1236.57 408.985V399.85C1236.57 397.329 1234.53 395.282 1232 395.282Z" fill="#111111"/>
<path d="M1232 422.688C1229.48 422.688 1227.44 424.735 1227.44 427.256V436.391C1227.44 438.913 1229.48 440.959 1232 440.959C1234.53 440.959 1236.57 438.913 1236.57 436.391V427.256C1236.57 424.735 1234.53 422.688 1232 422.688Z" fill="#111111"/>
<path d="M1250.28 395.282C1247.75 395.282 1245.71 397.329 1245.71 399.85V408.985C1245.71 411.506 1247.75 413.553 1250.28 413.553C1252.8 413.553 1254.84 411.506 1254.84 408.985V399.85C1254.84 397.329 1252.8 395.282 1250.28 395.282Z" fill="#111111"/>
<path d="M1250.28 422.688C1247.75 422.688 1245.71 424.735 1245.71 427.256V436.391C1245.71 438.913 1247.75 440.959 1250.28 440.959C1252.8 440.959 1254.84 438.913 1254.84 436.391V427.256C1254.84 424.735 1252.8 422.688 1250.28 422.688Z" fill="#111111"/>
<path d="M1250.28 313.064C1247.75 313.064 1245.71 315.111 1245.71 317.632V326.767C1245.71 329.289 1247.75 331.335 1250.28 331.335C1252.8 331.335 1254.84 329.289 1254.84 326.767V317.632C1254.84 315.111 1252.8 313.064 1250.28 313.064Z" fill="#111111"/>
<path d="M1250.28 340.471C1247.75 340.471 1245.71 342.517 1245.71 345.038V354.174C1245.71 356.695 1247.75 358.741 1250.28 358.741C1252.8 358.741 1254.84 356.695 1254.84 354.174V345.038C1254.84 342.517 1252.8 340.471 1250.28 340.471Z" fill="#111111"/>
<path d="M1250.28 367.877C1247.75 367.877 1245.71 369.923 1245.71 372.444V381.58C1245.71 384.101 1247.75 386.147 1250.28 386.147C1252.8 386.147 1254.84 384.101 1254.84 381.58V372.444C1254.84 369.923 1252.8 367.877 1250.28 367.877Z" fill="#111111"/>
<path d="M1250.28 285.658C1247.75 285.658 1245.71 287.705 1245.71 290.226V299.361C1245.71 301.882 1247.75 303.929 1250.28 303.929C1252.8 303.929 1254.84 301.882 1254.84 299.361V290.226C1254.84 287.705 1252.8 285.658 1250.28 285.658Z" fill="#111111"/>
<path d="M1268.55 340.471C1266.02 340.471 1263.98 342.517 1263.98 345.038V354.174C1263.98 356.695 1266.02 358.741 1268.55 358.741C1271.07 358.741 1273.11 356.695 1273.11 354.174V345.038C1273.11 342.517 1271.07 340.471 1268.55 340.471Z" fill="#111111"/>
<path d="M1268.55 313.064C1266.02 313.064 1263.98 315.111 1263.98 317.632V326.767C1263.98 329.289 1266.02 331.335 1268.55 331.335C1271.07 331.335 1273.11 329.289 1273.11 326.767V317.632C1273.11 315.111 1271.07 313.064 1268.55 313.064Z" fill="#111111"/>
<path d="M1268.55 422.688C1266.02 422.688 1263.98 424.735 1263.98 427.256V436.391C1263.98 438.913 1266.02 440.959 1268.55 440.959C1271.07 440.959 1273.11 438.913 1273.11 436.391V427.256C1273.11 424.735 1271.07 422.688 1268.55 422.688Z" fill="#111111"/>
<path d="M1263.98 290.226V299.361C1263.98 301.882 1266.02 303.929 1268.55 303.929C1271.07 303.929 1273.11 301.882 1273.11 299.361V290.226C1273.11 287.705 1271.07 285.658 1268.55 285.658C1266.02 285.658 1263.98 287.705 1263.98 290.226Z" fill="#111111"/>
<path d="M1268.55 367.877C1266.02 367.877 1263.98 369.923 1263.98 372.444V381.58C1263.98 384.101 1266.02 386.147 1268.55 386.147C1271.07 386.147 1273.11 384.101 1273.11 381.58V372.444C1273.11 369.923 1271.07 367.877 1268.55 367.877Z" fill="#111111"/>
<path d="M1268.55 395.282C1266.02 395.282 1263.98 397.329 1263.98 399.85V408.985C1263.98 411.506 1266.02 413.553 1268.55 413.553C1271.07 413.553 1273.11 411.506 1273.11 408.985V399.85C1273.11 397.329 1271.07 395.282 1268.55 395.282Z" fill="#111111"/>
<path d="M1346.2 249.117H1337.06V235.414C1337.06 232.893 1335.02 230.846 1332.49 230.846H1327.93V217.143C1327.93 214.622 1325.89 212.576 1323.36 212.576C1320.83 212.576 1318.79 214.622 1318.79 217.143V230.846H1314.22V217.143C1314.22 214.622 1312.18 212.576 1309.66 212.576C1307.13 212.576 1305.09 214.622 1305.09 217.143V230.846H1300.52C1298 230.846 1295.95 232.893 1295.95 235.414V249.117H1286.82C1284.29 249.117 1282.25 251.163 1282.25 253.684V267.387H1273.12V253.684C1273.12 251.163 1271.07 249.117 1268.55 249.117H1254.85V235.414C1254.85 232.893 1252.8 230.846 1250.28 230.846C1247.75 230.846 1245.71 232.893 1245.71 235.414V249.117H1232.01C1229.48 249.117 1227.44 251.163 1227.44 253.684V267.387H1218.3V226.278C1218.3 223.757 1216.26 221.711 1213.74 221.711H1200.03V208.008C1200.03 205.487 1197.99 203.44 1195.47 203.44H1181.76V194.305C1181.76 191.784 1179.72 189.737 1177.2 189.737C1174.67 189.737 1172.63 191.784 1172.63 194.305V203.44H1158.92C1156.4 203.44 1154.35 205.487 1154.35 208.008V221.711H1140.65C1138.13 221.711 1136.08 223.757 1136.08 226.278V271.955H1131.52V258.252C1131.52 255.731 1129.47 253.685 1126.95 253.685H1122.38V239.982C1122.38 237.461 1120.34 235.414 1117.81 235.414C1115.29 235.414 1113.25 237.461 1113.25 239.982V253.685H1108.68V239.982C1108.68 237.461 1106.64 235.414 1104.11 235.414C1101.59 235.414 1099.54 237.461 1099.54 239.982V253.685H1094.98C1092.45 253.685 1090.41 255.731 1090.41 258.252V271.955H1081.27C1078.75 271.955 1076.7 274.002 1076.7 276.523V459.23C1076.7 461.751 1078.75 463.798 1081.27 463.798H1140.65H1213.73H1286.82H1346.2C1348.72 463.798 1350.76 461.751 1350.76 459.23V253.685C1350.76 251.163 1348.72 249.117 1346.2 249.117ZM1136.08 454.662H1085.84V281.091H1094.98H1126.95H1136.08L1136.08 454.662ZM1163.49 440.959C1163.49 443.48 1161.45 445.527 1158.92 445.527C1156.4 445.527 1154.35 443.48 1154.35 440.959V436.392C1154.35 433.871 1156.4 431.824 1158.92 431.824C1161.45 431.824 1163.49 433.871 1163.49 436.392V440.959ZM1163.49 418.121C1163.49 420.642 1161.45 422.689 1158.92 422.689C1156.4 422.689 1154.35 420.642 1154.35 418.121V408.986C1154.35 406.465 1156.4 404.418 1158.92 404.418C1161.45 404.418 1163.49 406.465 1163.49 408.986V418.121ZM1163.49 390.715C1163.49 393.236 1161.45 395.283 1158.92 395.283C1156.4 395.283 1154.35 393.236 1154.35 390.715V381.58C1154.35 379.059 1156.4 377.012 1158.92 377.012C1161.45 377.012 1163.49 379.059 1163.49 381.58V390.715ZM1163.49 363.309C1163.49 365.83 1161.45 367.877 1158.92 367.877C1156.4 367.877 1154.35 365.83 1154.35 363.309V354.174C1154.35 351.652 1156.4 349.606 1158.92 349.606C1161.45 349.606 1163.49 351.652 1163.49 354.174V363.309ZM1163.49 335.903C1163.49 338.424 1161.45 340.471 1158.92 340.471C1156.4 340.471 1154.35 338.424 1154.35 335.903V326.768C1154.35 324.246 1156.4 322.2 1158.92 322.2C1161.45 322.2 1163.49 324.246 1163.49 326.768V335.903ZM1163.49 308.497C1163.49 311.018 1161.45 313.065 1158.92 313.065C1156.4 313.065 1154.35 311.018 1154.35 308.497V299.362C1154.35 296.84 1156.4 294.794 1158.92 294.794C1161.45 294.794 1163.49 296.84 1163.49 299.362V308.497ZM1163.49 281.091C1163.49 283.612 1161.45 285.658 1158.92 285.658C1156.4 285.658 1154.35 283.612 1154.35 281.091V271.955C1154.35 269.434 1156.4 267.388 1158.92 267.388C1161.45 267.388 1163.49 269.434 1163.49 271.955V281.091ZM1163.49 253.685C1163.49 256.206 1161.45 258.252 1158.92 258.252C1156.4 258.252 1154.35 256.206 1154.35 253.685V244.549C1154.35 242.028 1156.4 239.982 1158.92 239.982C1161.45 239.982 1163.49 242.028 1163.49 244.549V253.685ZM1181.76 440.959C1181.76 443.48 1179.72 445.527 1177.19 445.527C1174.67 445.527 1172.63 443.48 1172.63 440.959V436.392C1172.63 433.871 1174.67 431.824 1177.19 431.824C1179.72 431.824 1181.76 433.871 1181.76 436.392V440.959ZM1181.76 418.121C1181.76 420.642 1179.72 422.689 1177.19 422.689C1174.67 422.689 1172.63 420.642 1172.63 418.121V408.986C1172.63 406.465 1174.67 404.418 1177.19 404.418C1179.72 404.418 1181.76 406.465 1181.76 408.986V418.121ZM1181.76 390.715C1181.76 393.236 1179.72 395.283 1177.19 395.283C1174.67 395.283 1172.63 393.236 1172.63 390.715V381.58C1172.63 379.059 1174.67 377.012 1177.19 377.012C1179.72 377.012 1181.76 379.059 1181.76 381.58V390.715ZM1181.76 363.309C1181.76 365.83 1179.72 367.877 1177.19 367.877C1174.67 367.877 1172.63 365.83 1172.63 363.309V354.174C1172.63 351.652 1174.67 349.606 1177.19 349.606C1179.72 349.606 1181.76 351.652 1181.76 354.174V363.309ZM1181.76 335.903C1181.76 338.424 1179.72 340.471 1177.19 340.471C1174.67 340.471 1172.63 338.424 1172.63 335.903V326.768C1172.63 324.246 1174.67 322.2 1177.19 322.2C1179.72 322.2 1181.76 324.246 1181.76 326.768V335.903ZM1181.76 308.497C1181.76 311.018 1179.72 313.065 1177.19 313.065C1174.67 313.065 1172.63 311.018 1172.63 308.497V299.362C1172.63 296.84 1174.67 294.794 1177.19 294.794C1179.72 294.794 1181.76 296.84 1181.76 299.362V308.497ZM1181.76 281.091C1181.76 283.612 1179.72 285.658 1177.19 285.658C1174.67 285.658 1172.63 283.612 1172.63 281.091V271.955C1172.63 269.434 1174.67 267.388 1177.19 267.388C1179.72 267.388 1181.76 269.434 1181.76 271.955V281.091ZM1181.76 253.685C1181.76 256.206 1179.72 258.252 1177.19 258.252C1174.67 258.252 1172.63 256.206 1172.63 253.685V244.549C1172.63 242.028 1174.67 239.982 1177.19 239.982C1179.72 239.982 1181.76 242.028 1181.76 244.549V253.685ZM1200.03 440.959C1200.03 443.48 1197.99 445.527 1195.46 445.527C1192.94 445.527 1190.9 443.48 1190.9 440.959V436.392C1190.9 433.871 1192.94 431.824 1195.46 431.824C1197.99 431.824 1200.03 433.871 1200.03 436.392V440.959ZM1200.03 418.121C1200.03 420.642 1197.99 422.689 1195.46 422.689C1192.94 422.689 1190.9 420.642 1190.9 418.121V408.986C1190.9 406.465 1192.94 404.418 1195.46 404.418C1197.99 404.418 1200.03 406.465 1200.03 408.986V418.121ZM1200.03 390.715C1200.03 393.236 1197.99 395.283 1195.46 395.283C1192.94 395.283 1190.9 393.236 1190.9 390.715V381.58C1190.9 379.059 1192.94 377.012 1195.46 377.012C1197.99 377.012 1200.03 379.059 1200.03 381.58V390.715ZM1200.03 363.309C1200.03 365.83 1197.99 367.877 1195.46 367.877C1192.94 367.877 1190.9 365.83 1190.9 363.309V354.174C1190.9 351.652 1192.94 349.606 1195.46 349.606C1197.99 349.606 1200.03 351.652 1200.03 354.174V363.309ZM1200.03 335.903C1200.03 338.424 1197.99 340.471 1195.46 340.471C1192.94 340.471 1190.9 338.424 1190.9 335.903V326.768C1190.9 324.246 1192.94 322.2 1195.46 322.2C1197.99 322.2 1200.03 324.246 1200.03 326.768V335.903ZM1200.03 308.497C1200.03 311.018 1197.99 313.065 1195.46 313.065C1192.94 313.065 1190.9 311.018 1190.9 308.497V299.362C1190.9 296.84 1192.94 294.794 1195.46 294.794C1197.99 294.794 1200.03 296.84 1200.03 299.362V308.497ZM1200.03 281.091C1200.03 283.612 1197.99 285.658 1195.46 285.658C1192.94 285.658 1190.9 283.612 1190.9 281.091V271.955C1190.9 269.434 1192.94 267.388 1195.46 267.388C1197.99 267.388 1200.03 269.434 1200.03 271.955V281.091ZM1200.03 253.685C1200.03 256.206 1197.99 258.252 1195.46 258.252C1192.94 258.252 1190.9 256.206 1190.9 253.685V244.549C1190.9 242.028 1192.94 239.982 1195.46 239.982C1197.99 239.982 1200.03 242.028 1200.03 244.549V253.685ZM1282.25 454.662H1218.3V276.523H1232H1268.55H1282.25V454.662ZM1309.66 440.959C1309.66 443.48 1307.61 445.527 1305.09 445.527C1302.56 445.527 1300.52 443.48 1300.52 440.959V436.392C1300.52 433.871 1302.56 431.824 1305.09 431.824C1307.61 431.824 1309.66 433.871 1309.66 436.392V440.959ZM1309.66 418.121C1309.66 420.642 1307.61 422.689 1305.09 422.689C1302.56 422.689 1300.52 420.642 1300.52 418.121V408.986C1300.52 406.465 1302.56 404.418 1305.09 404.418C1307.61 404.418 1309.66 406.465 1309.66 408.986V418.121ZM1309.66 390.715C1309.66 393.236 1307.61 395.283 1305.09 395.283C1302.56 395.283 1300.52 393.236 1300.52 390.715V381.58C1300.52 379.059 1302.56 377.012 1305.09 377.012C1307.61 377.012 1309.66 379.059 1309.66 381.58V390.715ZM1309.66 363.309C1309.66 365.83 1307.61 367.877 1305.09 367.877C1302.56 367.877 1300.52 365.83 1300.52 363.309V354.174C1300.52 351.652 1302.56 349.606 1305.09 349.606C1307.61 349.606 1309.66 351.652 1309.66 354.174V363.309ZM1309.66 335.903C1309.66 338.424 1307.61 340.471 1305.09 340.471C1302.56 340.471 1300.52 338.424 1300.52 335.903V326.768C1300.52 324.246 1302.56 322.2 1305.09 322.2C1307.61 322.2 1309.66 324.246 1309.66 326.768V335.903ZM1309.66 308.497C1309.66 311.018 1307.61 313.065 1305.09 313.065C1302.56 313.065 1300.52 311.018 1300.52 308.497V299.362C1300.52 296.84 1302.56 294.794 1305.09 294.794C1307.61 294.794 1309.66 296.84 1309.66 299.362V308.497ZM1309.66 281.091C1309.66 283.612 1307.61 285.658 1305.09 285.658C1302.56 285.658 1300.52 283.612 1300.52 281.091V271.955C1300.52 269.434 1302.56 267.388 1305.09 267.388C1307.61 267.388 1309.66 269.434 1309.66 271.955V281.091ZM1332.49 440.959C1332.49 443.48 1330.45 445.527 1327.93 445.527C1325.4 445.527 1323.36 443.48 1323.36 440.959V436.392C1323.36 433.871 1325.4 431.824 1327.93 431.824C1330.45 431.824 1332.49 433.871 1332.49 436.392V440.959ZM1332.49 418.121C1332.49 420.642 1330.45 422.689 1327.93 422.689C1325.4 422.689 1323.36 420.642 1323.36 418.121V408.986C1323.36 406.465 1325.4 404.418 1327.93 404.418C1330.45 404.418 1332.49 406.465 1332.49 408.986V418.121ZM1332.49 390.715C1332.49 393.236 1330.45 395.283 1327.93 395.283C1325.4 395.283 1323.36 393.236 1323.36 390.715V381.58C1323.36 379.059 1325.4 377.012 1327.93 377.012C1330.45 377.012 1332.49 379.059 1332.49 381.58V390.715ZM1332.49 363.309C1332.49 365.83 1330.45 367.877 1327.93 367.877C1325.4 367.877 1323.36 365.83 1323.36 363.309V354.174C1323.36 351.652 1325.4 349.606 1327.93 349.606C1330.45 349.606 1332.49 351.652 1332.49 354.174V363.309ZM1332.49 335.903C1332.49 338.424 1330.45 340.471 1327.93 340.471C1325.4 340.471 1323.36 338.424 1323.36 335.903V326.768C1323.36 324.246 1325.4 322.2 1327.93 322.2C1330.45 322.2 1332.49 324.246 1332.49 326.768V335.903ZM1332.49 308.497C1332.49 311.018 1330.45 313.065 1327.93 313.065C1325.4 313.065 1323.36 311.018 1323.36 308.497V299.362C1323.36 296.84 1325.4 294.794 1327.93 294.794C1330.45 294.794 1332.49 296.84 1332.49 299.362V308.497ZM1332.49 281.091C1332.49 283.612 1330.45 285.658 1327.93 285.658C1325.4 285.658 1323.36 283.612 1323.36 281.091V271.955C1323.36 269.434 1325.4 267.388 1327.93 267.388C1330.45 267.388 1332.49 269.434 1332.49 271.955V281.091Z" fill="#111111"/>
</g>
<path d="M2357.13 103.444L2383.84 463.798H2417.47L2392.46 159.475L2357.13 103.444Z" fill="#111111"/>
<path d="M1975.23 162.082L1955.39 463.798H1932.99L1954.1 201.745L1975.23 162.082Z" fill="#111111"/>
<path d="M2254.55 68.9687L2320.06 463.798H2179.54V0L2254.55 68.9687ZM2193.33 389.65L2299.14 429.296L2293.11 387.918L2193.32 347.406V389.65H2193.33ZM2193.33 327.593L2291.6 368.095L2285.58 326.718L2193.33 285.34V327.593ZM2193.33 265.535L2282.55 304.314L2276.52 262.928L2193.33 223.291V265.535ZM2193.33 204.317L2271.77 244.837L2265.74 203.451L2193.34 162.064L2193.33 204.317ZM2193.33 141.375L2262.73 182.771L2256.69 141.393L2193.33 99.1403V141.375ZM2193.33 80.1748L2253.68 120.678L2245.06 80.1748L2193.33 37.931V80.1748Z" fill="#111111"/>
<path d="M2111.44 51.7177L2171.79 0V463.798H2035.59L2111.44 51.7177ZM2163.16 37.931L2118.34 69.826L2110.14 106.9L2163.16 75.8532V37.931ZM2163.16 99.1403L2110.14 124.787L2103.69 160.341L2163.16 137.071V99.1403ZM2163.16 160.341L2103.69 182.779L2095.52 221.559L2163.16 198.281V160.341ZM2163.16 221.541L2095.52 244.837L2086.86 290.289L2163.16 263.794V221.541ZM2163.16 282.751L2084.71 310.783L2076.24 353.142L2163.15 323.916L2163.16 282.751ZM2163.16 343.96L2076.24 375.431L2066.48 414.952L2163.15 385.991V343.96H2163.16Z" fill="#111111"/>
<path d="M2350.23 106.899L2377.81 463.798H2326.1L2318.96 419.822L2366.68 407.316L2364.96 387.052L2316.06 402.014L2313.79 388.006L2364.04 373.415L2362.32 353.151L2310.9 370.41L2308.62 356.208L2361.77 340.637L2360.05 320.372L2305.77 338.79L2303.43 324.42L2358.85 307.336L2357.13 287.063L2300.61 307.169L2298.23 292.604L2357.12 273.948L2355.38 253.683L2296.79 275.026V283.687L2285.57 214.665V134.49L2350.23 106.899ZM2295.51 259.914L2353.25 239.216L2351.52 218.943L2295.51 241.806V259.914ZM2294.2 226.729L2350.36 206.579L2348.62 186.314L2294.2 208.629V226.729ZM2292.9 193.535L2347.21 174.145L2345.49 153.88L2292.89 175.435L2292.9 193.535ZM2291.6 160.34L2345.92 140.96L2344.2 120.686L2291.59 142.241V160.34H2291.6Z" fill="#111111"/>
<path d="M1979.54 157.751L2044.19 183.61L2055.4 323.262L2049.39 352.956L1977.36 335.157L1976.08 358.648L2045.24 373.459L2042.3 387.935L1975.23 374.573L1973.14 399.884L2038.05 408.987L2026.95 463.78H1963.15L1979.54 157.751ZM2038.44 197.662L1985.44 178.192L1984.51 200.428L2039.89 217.14L2038.44 197.662ZM2041.32 228.735L1982.75 210.6L1981.6 230.555L2042.76 248.195L2041.32 228.735ZM2044.2 259.799L1981.58 240.33L1980.62 261.425L2045.64 279.268L2044.2 259.799ZM2047.07 290.872L1979.67 271.403L1978.89 292.869L2048.52 310.35L2047.07 290.872ZM2051.39 341.405L2049.96 321.954L1978.89 302.485L1977.36 322.979L2051.39 341.405Z" fill="#111111"/>
<path d="M1788.27 318.855C1790.09 318.855 1791.57 320.325 1791.57 322.157V346.907C1791.57 348.738 1790.09 350.222 1788.27 350.222C1786.45 350.222 1784.98 348.738 1784.98 346.907V322.157C1784.97 320.325 1786.45 318.855 1788.27 318.855Z" fill="#111111"/>
<path d="M1757.12 318.855C1758.94 318.855 1760.41 320.325 1760.41 322.157V346.907C1760.41 348.738 1758.93 350.222 1757.12 350.222C1755.3 350.222 1753.83 348.738 1753.83 346.907V322.157C1753.83 320.325 1755.3 318.855 1757.12 318.855Z" fill="#111111"/>
<path d="M1788.27 370.167C1790.09 370.167 1791.57 371.648 1791.57 373.457V398.224C1791.57 400.04 1790.09 401.508 1788.27 401.508C1786.45 401.508 1784.98 400.038 1784.98 398.224V373.457C1784.97 371.648 1786.45 370.167 1788.27 370.167Z" fill="#111111"/>
<path d="M1757.12 370.167C1758.94 370.167 1760.41 371.648 1760.41 373.457V398.224C1760.41 400.04 1758.93 401.508 1757.12 401.508C1755.3 401.508 1753.83 400.038 1753.83 398.224V373.457C1753.83 371.648 1755.3 370.167 1757.12 370.167Z" fill="#111111"/>
<path d="M1788.27 421.471C1790.09 421.471 1791.57 422.946 1791.57 424.783V449.533C1791.57 451.364 1790.09 452.834 1788.27 452.834C1786.45 452.834 1784.98 451.364 1784.98 449.533V424.783C1784.97 422.946 1786.45 421.471 1788.27 421.471Z" fill="#111111"/>
<path d="M1757.12 421.471C1758.94 421.471 1760.41 422.946 1760.41 424.783V449.533C1760.41 451.364 1758.93 452.834 1757.12 452.834C1755.3 452.834 1753.83 451.364 1753.83 449.533V424.783C1753.83 422.946 1755.3 421.471 1757.12 421.471Z" fill="#111111"/>
<path d="M1868.32 421.471C1870.14 421.471 1871.61 422.946 1871.61 424.783V449.533C1871.61 451.364 1870.14 452.834 1868.32 452.834C1866.5 452.834 1865.03 451.364 1865.03 449.533V424.783C1865.03 422.946 1866.5 421.471 1868.32 421.471Z" fill="#111111"/>
<path d="M1837.17 421.471C1838.99 421.471 1840.46 422.946 1840.46 424.783V449.533C1840.46 451.364 1838.99 452.834 1837.17 452.834C1835.35 452.834 1833.88 451.364 1833.88 449.533V424.783C1833.88 422.946 1835.35 421.471 1837.17 421.471Z" fill="#111111"/>
<path d="M1609.09 457.184H1655.45V355.128C1655.45 353.297 1656.92 351.827 1658.75 351.827H1726.55C1728.35 351.827 1729.84 353.297 1729.84 355.128V457.184H1735.52V306.583C1735.52 304.734 1737 303.264 1738.8 303.264H1771.56V290.382C1768.44 293.492 1764.14 295.424 1759.4 295.424C1749.87 295.424 1742.13 287.676 1742.13 278.169C1742.13 268.645 1749.86 260.892 1759.4 260.892C1766.2 260.892 1772.05 264.881 1774.85 270.627C1777.66 264.911 1783.5 260.892 1790.31 260.892C1799.83 260.892 1807.58 268.645 1807.58 278.169C1807.58 287.688 1799.83 295.424 1790.31 295.424C1785.56 295.424 1781.27 293.492 1778.15 290.382V303.264H1806.57C1808.4 303.264 1809.87 304.734 1809.87 306.583V457.184H1815.54V407.346C1815.54 405.535 1817.03 404.067 1818.83 404.067H1886.63C1888.45 404.067 1889.92 405.537 1889.92 407.346V457.184H1929.7C1931.52 457.184 1932.99 458.665 1932.99 460.497C1932.99 462.328 1931.51 463.798 1929.7 463.798H1886.61C1884.79 463.798 1883.32 462.328 1883.32 460.497V410.645H1822.12V460.497C1822.12 462.328 1820.65 463.798 1818.82 463.798H1806.56C1804.74 463.798 1803.26 462.328 1803.26 460.497V309.884H1742.08V460.497C1742.08 462.328 1740.6 463.798 1738.79 463.798H1726.51C1724.68 463.798 1723.21 462.328 1723.21 460.497V358.435H1662V460.497C1662 462.328 1660.53 463.798 1658.72 463.798H1609.05C1607.23 463.798 1605.76 462.328 1605.76 460.497C1605.76 458.665 1607.28 457.184 1609.09 457.184ZM1759.41 267.512C1753.52 267.512 1748.73 272.289 1748.73 278.189C1748.73 284.069 1753.51 288.869 1759.41 288.869C1765.31 288.869 1770.09 284.08 1770.09 278.189C1770.09 272.289 1765.3 267.512 1759.41 267.512ZM1790.32 288.857C1796.21 288.857 1801 284.08 1801 278.18C1801 272.278 1796.21 267.501 1790.32 267.501C1784.43 267.501 1779.64 272.278 1779.64 278.18C1779.65 284.069 1784.44 288.857 1790.32 288.857Z" fill="#111111"/>
<path d="M1708.21 370.167C1710.02 370.167 1711.49 371.648 1711.49 373.457V398.224C1711.49 400.04 1710.02 401.508 1708.21 401.508C1706.38 401.508 1704.91 400.038 1704.91 398.224V373.457C1704.91 371.648 1706.4 370.167 1708.21 370.167Z" fill="#111111"/>
<path d="M1677.07 370.167C1678.89 370.167 1680.36 371.648 1680.36 373.457V398.224C1680.36 400.04 1678.89 401.508 1677.07 401.508C1675.24 401.508 1673.76 400.038 1673.76 398.224V373.457C1673.76 371.648 1675.25 370.167 1677.07 370.167Z" fill="#111111"/>
<path d="M1708.21 421.471C1710.02 421.471 1711.49 422.946 1711.49 424.783V449.533C1711.49 451.364 1710.02 452.834 1708.21 452.834C1706.38 452.834 1704.91 451.364 1704.91 449.533V424.783C1704.91 422.946 1706.4 421.471 1708.21 421.471Z" fill="#111111"/>
<path d="M1677.07 421.471C1678.89 421.471 1680.36 422.946 1680.36 424.783V449.533C1680.36 451.364 1678.89 452.834 1677.07 452.834C1675.24 452.834 1673.76 451.364 1673.76 449.533V424.783C1673.76 422.946 1675.25 421.471 1677.07 421.471Z" fill="#111111"/>
<path d="M1460.58 403.307H1475.7V329.508C1475.7 327.838 1477.06 326.484 1478.73 326.484H1497.78V318.62C1497.78 316.95 1499.13 315.596 1500.8 315.596C1502.47 315.596 1503.83 316.95 1503.83 318.62V326.484H1522.88C1524.55 326.484 1525.91 327.838 1525.91 329.508V364.593H1556.76V341.619C1556.76 339.949 1558.11 338.595 1559.78 338.595H1602.73C1604.4 338.595 1605.76 339.949 1605.76 341.619V460.773C1605.76 462.444 1604.4 463.798 1602.73 463.798H1460.58C1458.91 463.798 1457.55 462.444 1457.55 460.773V406.332C1457.55 404.661 1458.91 403.307 1460.58 403.307ZM1562.81 367.618V457.749H1599.71V453.817H1583.12C1581.45 453.817 1580.09 452.463 1580.09 450.792C1580.09 449.122 1581.45 447.768 1583.12 447.768H1599.71V440.253H1583.12C1581.45 440.253 1580.09 438.899 1580.09 437.228C1580.09 435.558 1581.45 434.204 1583.12 434.204H1599.71V426.689H1583.12C1581.45 426.689 1580.09 425.335 1580.09 423.664C1580.09 421.994 1581.45 420.64 1583.12 420.64H1599.71V413.126H1583.12C1581.45 413.126 1580.09 411.771 1580.09 410.101C1580.09 408.431 1581.45 407.076 1583.12 407.076H1599.71V399.562H1583.12C1581.45 399.562 1580.09 398.207 1580.09 396.537C1580.09 394.867 1581.45 393.512 1583.12 393.512H1599.71V385.998H1583.12C1581.45 385.998 1580.09 384.643 1580.09 382.973C1580.09 381.303 1581.45 379.948 1583.12 379.948H1599.71V372.434H1583.12C1581.45 372.434 1580.09 371.08 1580.09 369.409C1580.09 367.739 1581.45 366.385 1583.12 366.385H1599.71V358.87H1583.12C1581.45 358.87 1580.09 357.516 1580.09 355.845C1580.09 354.175 1581.45 352.821 1583.12 352.821H1599.71V344.644H1562.81V367.618ZM1519.86 332.533H1481.75V403.307H1504.74V367.618C1504.74 365.947 1506.09 364.593 1507.76 364.593H1519.86V332.533ZM1525.3 437.755H1547.62V435.342H1525.3V437.755ZM1525.3 419.038H1547.68V416.625H1525.3V419.038ZM1525.3 406.332V410.575H1550.71C1552.38 410.575 1553.73 411.929 1553.73 413.6V422.062C1553.73 423.733 1552.38 425.087 1550.71 425.087H1525.3V429.293H1550.64C1552.31 429.293 1553.67 430.647 1553.67 432.317V440.779C1553.67 442.45 1552.31 443.804 1550.64 443.804H1525.3V457.749H1556.76V370.642H1510.79V403.307H1522.28C1523.95 403.307 1525.3 404.661 1525.3 406.332ZM1498.99 457.749H1507.76H1509.28V447.491H1498.99L1498.99 457.749ZM1470.57 457.749H1480.86V447.491H1470.57V457.749ZM1463.6 457.749H1464.52V444.467C1464.52 442.796 1465.87 441.442 1467.54 441.442H1483.89C1485.56 441.442 1486.91 442.796 1486.91 444.467V457.749H1492.94V444.467C1492.94 442.796 1494.29 441.442 1495.96 441.442H1512.31C1513.98 441.442 1515.33 442.796 1515.33 444.467V457.749H1519.25V409.356H1463.6V457.749Z" fill="#111111"/>
<path d="M1495.96 414.517H1512.31C1513.98 414.517 1515.33 415.871 1515.33 417.541V433.899C1515.33 435.569 1513.98 436.923 1512.31 436.923C1510.64 436.923 1509.28 435.569 1509.28 433.899V420.566H1498.99V423.926C1498.99 425.596 1497.63 426.951 1495.96 426.951C1494.29 426.951 1492.94 425.596 1492.94 423.926V417.541C1492.94 415.871 1494.29 414.517 1495.96 414.517Z" fill="#111111"/>
<path d="M1496.32 430.79C1497.99 430.79 1499.35 432.144 1499.35 433.815V433.899C1499.35 435.57 1497.99 436.924 1496.32 436.924C1494.65 436.924 1493.3 435.57 1493.3 433.899V433.815C1493.3 432.144 1494.65 430.79 1496.32 430.79Z" fill="#111111"/>
<path d="M1467.54 414.517H1483.89C1485.56 414.517 1486.91 415.871 1486.91 417.541V433.899C1486.91 435.569 1485.56 436.923 1483.89 436.923C1482.22 436.923 1480.86 435.569 1480.86 433.899V420.566H1470.57V423.926C1470.57 425.596 1469.21 426.951 1467.54 426.951C1465.87 426.951 1464.52 425.596 1464.52 423.926V417.541C1464.52 415.871 1465.87 414.517 1467.54 414.517Z" fill="#111111"/>
<path d="M1467.9 430.79C1469.57 430.79 1470.92 432.144 1470.92 433.815V433.899C1470.92 435.57 1469.57 436.924 1467.9 436.924C1466.23 436.924 1464.88 435.57 1464.88 433.899V433.815C1464.88 432.144 1466.23 430.79 1467.9 430.79Z" fill="#111111"/>
<path d="M1511.39 341.155C1513.06 341.155 1514.42 342.509 1514.42 344.18V349.019C1514.42 350.689 1513.06 352.044 1511.39 352.044C1509.72 352.044 1508.37 350.689 1508.37 349.019V344.18C1508.37 342.509 1509.72 341.155 1511.39 341.155Z" fill="#111111"/>
<path d="M1500.8 341.155C1502.47 341.155 1503.83 342.509 1503.83 344.18V349.019C1503.83 350.689 1502.47 352.044 1500.8 352.044C1499.13 352.044 1497.78 350.689 1497.78 349.019V344.18C1497.78 342.509 1499.13 341.155 1500.8 341.155Z" fill="#111111"/>
<path d="M1490.22 341.155C1491.89 341.155 1493.24 342.509 1493.24 344.18V349.019C1493.24 350.689 1491.89 352.044 1490.22 352.044C1488.55 352.044 1487.19 350.689 1487.19 349.019V344.18C1487.19 342.509 1488.55 341.155 1490.22 341.155Z" fill="#111111"/>
<path d="M1490.22 359.754C1491.89 359.754 1493.24 361.108 1493.24 362.778V367.618C1493.24 369.288 1491.89 370.642 1490.22 370.642C1488.55 370.642 1487.19 369.288 1487.19 367.618V362.778C1487.19 361.108 1488.55 359.754 1490.22 359.754Z" fill="#111111"/>
<path d="M1490.22 378.809C1491.89 378.809 1493.24 380.163 1493.24 381.833V386.672C1493.24 388.343 1491.89 389.697 1490.22 389.697C1488.55 389.697 1487.19 388.343 1487.19 386.672V381.833C1487.19 380.163 1488.55 378.809 1490.22 378.809Z" fill="#111111"/>
<path d="M1516.84 372.766H1550.71C1552.38 372.766 1553.73 374.12 1553.73 375.79V384.252C1553.73 385.923 1552.38 387.277 1550.71 387.277H1516.84C1515.17 387.277 1513.81 385.923 1513.81 384.252V375.79C1513.81 374.12 1515.17 372.766 1516.84 372.766ZM1519.86 381.228H1547.68V378.815H1519.86V381.228Z" fill="#111111"/>
<path d="M1516.84 391.587H1550.71C1552.38 391.587 1553.73 392.941 1553.73 394.611V403.074C1553.73 404.744 1552.38 406.098 1550.71 406.098H1532.76C1531.09 406.098 1529.74 404.744 1529.74 403.074C1529.74 401.403 1531.09 400.049 1532.76 400.049H1547.68V397.636H1519.86V397.913C1519.86 399.584 1518.51 400.938 1516.84 400.938C1515.17 400.938 1513.81 399.584 1513.81 397.913V394.611C1513.81 392.941 1515.17 391.587 1516.84 391.587Z" fill="#111111"/>
<path d="M1406.17 318.344L1420.39 312.191V325.864L1406.17 331.526V318.344Z" fill="#111111"/>
<path d="M1406.17 351.343L1391.97 357.015V343.833L1406.17 337.681V351.343Z" fill="#111111"/>
<path d="M1396.34 362.844L1410.55 356.686V370.358L1396.34 376.023V362.844Z" fill="#111111"/>
<path d="M1420.39 396.389L1406.17 402.054V388.872L1420.39 382.72V396.389Z" fill="#111111"/>
<path d="M1410 429.836L1395.8 435.501V422.319L1410 416.17V429.836Z" fill="#111111"/>
<path d="M1362.86 344.755L1385.41 359.532V463.798H1362.86V354.041L1347.33 360.567V463.798H1340.76V363.329V359.272V355.566L1362.86 344.755ZM1375.43 444.562L1383.56 449.002V437.536L1375.43 432.918V444.562ZM1375.43 426.959L1383.56 431.393V419.933L1375.43 415.315V426.959ZM1375.43 409.353L1383.56 413.79V402.32L1375.43 397.706V409.353ZM1375.43 391.744L1383.56 396.181V384.718L1375.43 380.097V391.744ZM1375.43 374.137L1383.56 378.578V367.105L1375.43 362.491V374.137ZM1366 439.767L1374.13 444.207V432.741L1366 428.124V439.767ZM1366 422.164L1374.13 426.595V415.135L1366 410.514V422.164ZM1366 404.552L1374.13 408.995V397.526L1366 392.908V404.552ZM1366 386.946L1374.13 391.386V379.92L1366 375.305V386.946ZM1366 369.339L1374.13 373.78V362.307L1366 357.69V369.339Z" fill="#111111"/>
<path d="M1428.8 290.053V278.207H1435.36V294.354L1457.55 308.912V463.041H1424.21V300.788L1391.55 314.514V303.039L1424.21 287.053L1428.8 290.053ZM1442.81 434.614L1454.83 441.169V424.224L1442.81 417.397V434.614ZM1442.81 408.577L1454.83 415.138V398.19L1442.81 391.363V408.577ZM1442.81 382.549L1454.83 389.11V372.162L1442.81 365.336V382.549ZM1442.81 356.521L1454.83 363.079V346.131L1442.81 339.301V356.521ZM1442.81 330.494L1454.83 337.051V320.103L1442.81 313.28V330.494ZM1428.86 427.522L1440.88 434.079V417.135L1428.86 410.311V427.522ZM1428.86 401.494L1440.88 408.045V391.101L1428.86 384.274V401.494ZM1428.86 375.463L1440.88 382.021V365.073L1428.86 358.243V375.463ZM1428.86 349.432L1440.88 355.987V339.039L1428.86 332.212V349.432ZM1428.86 323.398L1440.88 329.952V313.008L1428.86 306.178V323.398Z" fill="#111111"/>
<defs>
<clipPath id="clip0_213_769">
<rect width="274.06" height="274.06" fill="white" transform="translate(1076.7 189.737)"/>
</clipPath>
</defs>
</svg>
