<svg width="38" height="29" viewBox="0 0 38 29" fill="none" xmlns="http://www.w3.org/2000/svg">
<path d="M-3.08635e-05 28.9598V21.3388C-3.08635e-05 19.0243 0.40924 16.5687 1.22778 13.972C2.07455 11.347 3.28825 8.82079 4.86889 6.39339C6.47775 3.93776 8.4112 1.80672 10.6693 0.00028264L16.0886 4.40348C14.3104 6.94379 12.7579 9.59699 11.4313 12.3631C10.133 15.101 9.48378 18.0364 9.48378 21.1695V28.9598H-3.08635e-05ZM21.6772 28.9598V21.3388C21.6772 19.0243 22.0865 16.5687 22.9051 13.972C23.7518 11.347 24.9655 8.82079 26.5462 6.39339C28.155 3.93776 30.0885 1.80672 32.3465 0.00028264L37.7658 4.40348C35.9876 6.94379 34.4352 9.59699 33.1086 12.3631C31.8102 15.101 31.161 18.0364 31.161 21.1695V28.9598H21.6772Z" fill="#FFFAEB"/>
</svg>
