<svg width="792" height="112" viewBox="0 0 792 112" fill="none" xmlns="http://www.w3.org/2000/svg">
<path d="M24.2015 59.1683C21.2514 58.7723 18.3355 58.2669 15.4605 57.666C12.5787 57.0514 9.99744 56.1227 7.70295 54.8798C5.40845 53.6233 3.551 51.9502 2.1306 49.8538C0.710201 47.7642 0 45.0326 0 41.6592C0 38.4223 0.751175 35.7181 2.26718 33.5465C3.77635 31.3612 5.79087 29.6131 8.30388 28.3019C10.8306 26.9908 13.7192 26.0621 16.9629 25.5158C20.2202 24.9694 23.6005 24.6963 27.0969 24.6963C35.0866 24.6963 41.3077 26.4035 45.7533 29.8043C50.1921 33.1914 52.4183 37.9579 52.4183 44.0902H45.644C45.644 42.0689 45.1387 40.2524 44.1417 38.6271C43.1583 36.9882 41.8199 35.5951 40.1263 34.4479C38.4464 33.287 36.4934 32.3856 34.2535 31.7437C32.0273 31.1086 29.644 30.7876 27.0969 30.7876C25.6355 30.7876 23.8054 30.8901 21.6065 31.0881C19.4008 31.293 17.2633 31.771 15.1874 32.5358C13.1251 33.287 11.3632 34.4342 9.88818 35.9776C8.41315 37.5072 7.67563 39.5764 7.67563 42.1782C7.67563 44.1107 8.16731 45.6677 9.15066 46.8491C10.134 48.0373 11.452 49.007 13.1114 49.7718C14.764 50.523 16.6761 51.1103 18.8476 51.5473C21.0329 51.9844 23.3137 52.3805 25.7038 52.7219C28.8314 53.1999 31.9727 53.7257 35.1276 54.3062C38.2962 54.873 41.1507 55.7676 43.7047 56.9831C46.2723 58.2055 48.3619 59.8649 49.9872 61.9545C51.6056 64.051 52.4183 66.8371 52.4183 70.313C52.4183 73.5772 51.6603 76.2951 50.1511 78.4803C48.6351 80.6519 46.6137 82.3864 44.0871 83.6976C41.5741 84.9951 38.6786 85.9238 35.4008 86.4837C32.1229 87.03 28.6812 87.3032 25.0755 87.3032C16.8946 87.3032 10.6667 85.6096 6.39181 82.2225C2.1306 78.8218 0 74.0416 0 67.882H6.80154C6.80154 69.9033 7.27273 71.7471 8.22194 73.3997C9.18481 75.0591 10.4959 76.4863 12.1554 77.6882C13.8079 78.8764 15.7405 79.7846 17.9462 80.4197C20.1451 81.0616 22.5216 81.3758 25.0755 81.3758C26.5301 81.3758 28.3671 81.2597 30.5933 81.0207C32.8331 80.7885 34.9979 80.2763 37.0943 79.491C39.184 78.7125 40.9868 77.5516 42.5028 76.0219C44.012 74.4786 44.77 72.4026 44.77 69.794C44.77 67.759 44.1827 66.1269 43.0218 64.9046C41.854 63.689 40.3175 62.7193 38.4055 62.0091C36.4934 61.2853 34.2945 60.7185 31.8225 60.3156C29.3641 59.899 26.8237 59.5166 24.2015 59.1683Z" fill="#FFFAEB"/>
<path d="M131.197 88H122.646L146.646 24H166.921L191.059 88H182.645L159.749 26.2069H154.094L131.197 88Z" fill="#FFC309"/>
<g filter="url(#filter0_f_204_486)">
<path d="M131.197 88H122.646L146.646 24H166.921L191.059 88H182.645L159.749 26.2069H154.094L131.197 88Z" fill="#FFC309"/>
</g>
<path d="M280.161 24.5732L306.275 85.35H310.672V24.5732H318.485V87.426H299.637L273.523 26.54H269.098V87.426H261.286V24.5732H280.161Z" fill="#FFFAEB"/>
<path d="M408.534 88C403.618 88 399.179 87.242 395.232 85.7328C391.298 84.2032 387.952 82.0384 385.207 79.2318C382.455 76.4319 380.352 73.0585 378.897 69.1251C377.436 65.178 376.712 60.7939 376.712 55.9863C376.712 51.1447 377.422 46.7674 378.843 42.8476C380.277 38.9347 382.353 35.5749 385.07 32.7682C387.781 29.9684 391.093 27.8105 395.013 26.2945C398.947 24.7648 403.385 24 408.343 24C415.95 24 422.165 25.5433 426.972 28.6163C431.793 31.6756 435.174 36.688 437.106 43.6398H430.277C428.639 39.7815 426.016 36.5856 422.411 34.0521C418.819 31.5049 414.134 30.2279 408.343 30.2279C405.079 30.2279 402.006 30.8015 399.111 31.9488C396.215 33.0824 393.661 34.7486 391.462 36.9475C389.277 39.1327 387.556 41.8233 386.3 45.0055C385.043 48.1946 384.415 51.8549 384.415 55.9863C384.415 60.1383 385.07 63.8122 386.382 66.9945C387.706 70.1835 389.468 72.8809 391.653 75.0798C393.839 77.265 396.386 78.9313 399.302 80.0785C402.231 81.2121 405.311 81.7721 408.534 81.7721C411.443 81.7721 414.086 81.4375 416.456 80.7614C418.819 80.0922 420.922 79.1635 422.766 77.9752C424.623 76.7734 426.18 75.353 427.437 73.714C428.693 72.0751 429.636 70.2928 430.277 68.3602H437.106C435.174 75.3188 431.821 80.338 427.054 83.411C422.301 86.4703 416.128 88 408.534 88Z" fill="#FFFAEB"/>
<path d="M547.424 24.6553V31.5661H525.326V87.3441H517.432V31.5661H495.333V24.6553H547.424Z" fill="#FFFAEB"/>
<path d="M605.651 24.6553H613.272V61.3399C613.272 65.0411 613.873 68.1619 615.075 70.709C616.277 73.263 617.793 75.298 619.637 76.8277C621.494 78.3437 623.529 79.4363 625.756 80.1055C627.975 80.7816 630.112 81.1162 632.175 81.1162C634.032 81.1162 636.06 80.8431 638.266 80.2968C640.465 79.7368 642.5 78.7329 644.357 77.2921C646.228 75.858 647.813 73.8503 649.11 71.2827C650.401 68.7014 651.05 65.3825 651.05 61.3399V24.6553H658.78V61.3399C658.78 65.7308 658.056 69.5755 656.622 72.867C655.181 76.1448 653.242 78.849 650.804 80.9796C648.379 83.1102 645.559 84.7082 642.336 85.7598C639.126 86.8115 635.739 87.3441 632.175 87.3441C628.658 87.3441 625.291 86.8115 622.068 85.7598C618.845 84.7082 616.011 83.1102 613.573 80.9796C611.149 78.849 609.216 76.1448 607.782 72.867C606.362 69.5755 605.651 65.7308 605.651 61.3399V24.6553Z" fill="#FFFAEB"/>
<path d="M717.007 24.7783H735.554L752.681 85.5278H755.904L773.031 24.7783H791.578V87.2213H783.82V27.8103H779.45L763.197 87.2213H745.36L729.217 27.8103H724.764V87.2213H717.007V24.7783Z" fill="#FFFAEB"/>
<defs>
<filter id="filter0_f_204_486" x="102.646" y="4" width="108.414" height="104" filterUnits="userSpaceOnUse" color-interpolation-filters="sRGB">
<feFlood flood-opacity="0" result="BackgroundImageFix"/>
<feBlend mode="normal" in="SourceGraphic" in2="BackgroundImageFix" result="shape"/>
<feGaussianBlur stdDeviation="10" result="effect1_foregroundBlur_204_486"/>
</filter>
</defs>
</svg>
