<svg width="322" height="328" viewBox="0 0 322 328" fill="none" xmlns="http://www.w3.org/2000/svg">
<path d="M167.389 31.1405L210.38 0.826172L271.008 18.4636L258.332 64.2104H229.671C188.885 124.287 258.224 169.69 276.52 237.276L258.332 244.607M167.389 31.1405L121.643 0.826175L57.7074 21.7704L74.2423 64.2104H101.801C104.214 68.7151 106.249 73.0151 107.937 77.1353M167.389 31.1405L107.937 77.1353M258.332 244.607L276.52 321.767H66.8885M258.332 244.607L66.8885 321.767M66.8885 321.767L53.617 327.116C53.617 327.116 33.775 323.809 53.617 241.135C72.3006 163.286 135.172 143.592 107.937 77.1353" stroke="#FFC309" stroke-width="1.5"/>
</svg>
