<svg width="323" height="328" viewBox="0 0 323 328" fill="none" xmlns="http://www.w3.org/2000/svg">
<path d="M200.448 59.0883C200.448 26.869 155.744 0.75 100.599 0.75C45.454 0.75 0.75 26.869 0.75 59.0883M200.448 59.0883V124.692M200.448 59.0883C200.448 75.337 189.079 90.0341 170.734 100.612C152.703 111.009 127.934 117.427 100.599 117.427C73.2644 117.427 48.4951 111.009 30.4642 100.612C12.1196 90.0341 0.75 75.337 0.75 59.0883M0.75 59.0883V124.692M200.448 124.692C200.448 133.535 197.081 141.918 191.055 149.428M200.448 124.692V147.921M0.75 124.692V198.327M0.75 124.692C0.75 140.218 11.1307 154.328 28.0582 164.78C46.2586 176.019 72.0274 183.031 100.599 183.031C111.482 183.031 121.957 182.014 131.763 180.133M0.75 198.327V268.702C0.75 300.921 45.454 327.04 100.599 327.04C123.483 327.04 144.57 322.542 161.409 314.977M0.75 198.327C0.75 212.801 9.77117 226.043 24.7075 236.24C43.0208 248.742 70.2263 256.665 100.599 256.665C108.077 256.665 115.362 256.185 122.37 255.275M322.068 204.868C322.068 237.088 277.364 263.207 222.219 263.207C214.742 263.207 207.456 262.727 200.448 261.816C186.26 259.973 173.208 256.365 162.003 251.408C161.804 251.32 161.606 251.232 161.409 251.143C137.67 240.478 122.37 223.717 122.37 204.868M322.068 204.868C322.068 172.649 277.364 146.53 222.219 146.53C214.742 146.53 207.456 147.01 200.448 147.921M322.068 204.868V268.702C322.068 300.921 277.364 327.04 222.219 327.04C199.335 327.04 178.249 322.542 161.409 314.977M122.37 204.868V255.275M122.37 204.868C122.37 196.026 125.737 187.643 131.763 180.133M122.37 255.275V268.702C122.37 287.551 137.67 304.312 161.409 314.977M131.763 180.133C131.968 179.878 132.176 179.623 132.388 179.369C144.106 165.303 165.218 154.4 190.956 149.447C190.989 149.44 191.022 149.434 191.055 149.428M191.055 149.428C194.123 148.839 197.257 148.335 200.448 147.921" stroke="#FFC309" stroke-width="1.5"/>
</svg>
