<svg width="322" height="327" viewBox="0 0 322 327" fill="none" xmlns="http://www.w3.org/2000/svg">
<path d="M306.813 181.536C306.813 207.93 270.192 229.326 225.018 229.326C218.892 229.326 212.924 228.933 207.183 228.187C195.56 226.677 184.868 223.722 175.689 219.661C175.526 219.589 175.364 219.517 175.203 219.444C155.755 210.707 143.222 196.977 143.222 181.536M306.813 181.536C306.813 155.142 270.192 133.746 225.018 133.746C218.892 133.746 212.924 134.139 207.183 134.885C204.569 135.224 199.407 136.135 199.407 136.135C178.323 140.193 161.028 149.124 151.428 160.647C151.255 160.855 151.085 161.063 150.917 161.273C145.98 167.425 143.222 174.292 143.222 181.536M306.813 181.536V225.827M143.222 181.536V225.827M306.813 225.827C306.813 252.221 270.192 273.618 225.018 273.618C206.271 273.618 188.997 269.933 175.203 263.736C155.755 254.999 143.222 241.268 143.222 225.827M306.813 225.827L307.664 264.066C307.664 290.46 271.043 308.856 225.869 308.856C207.122 308.856 189.849 305.172 176.054 298.974C156.607 290.237 144.073 279.507 144.073 264.066L143.222 225.827M251.271 136.26V78.2624M251.271 78.2624L132.234 141.73M251.271 78.2624L188.15 46.007M13.6543 78.2624L132.235 17.4336L188.15 46.007M13.6543 78.2624V197.546L72.9443 233.434M13.6543 78.2624L72.9443 109.996M132.234 141.73L130.293 266.89M132.234 141.73L72.9443 109.996M130.293 266.89L143.972 259.521M130.293 266.89L72.9443 233.434M72.9443 233.434V109.996M72.9443 109.996L188.15 46.007" stroke="#FFC309" stroke-width="1.5"/>
</svg>
