<svg width="322" height="328" viewBox="0 0 322 328" fill="none" xmlns="http://www.w3.org/2000/svg">
<path d="M13.6558 107.226H205.048M13.6558 107.226V326.29H205.048V107.226M13.6558 107.226L111.066 1.23926L190.982 90.69M205.048 107.226L190.982 90.69M205.048 144.121H307.662M307.662 144.121V310.957H205.048M307.662 144.121L221.631 63.2286L190.982 90.69M57.9701 142.63H90.7961V177.192H57.9701V142.63ZM130.282 142.63H163.108V177.192H130.282V142.63ZM130.282 201.523H163.108V236.085H130.282V201.523ZM57.9701 201.523H90.7961V236.085H57.9701V201.523ZM57.9701 260.415H90.7961V294.977H57.9701V260.415ZM130.282 260.415H163.108V294.977H130.282V260.415Z" stroke="#FFC309" stroke-width="1.5"/>
</svg>
