<svg width="322" height="328" viewBox="0 0 322 328" fill="none" xmlns="http://www.w3.org/2000/svg">
<path d="M5.38135 259.656V0.75H237.222V122.485M5.38135 259.656H131.87H195.552M5.38135 259.656V299.979H195.552M315.937 298.302V122.485H195.552V259.656M315.937 298.302H276.579H195.552M315.937 298.302V327.04H195.552V298.302M195.552 298.302V299.979M195.552 259.656V299.979M263.572 312.302C263.572 315.207 261.217 317.562 258.312 317.562C255.407 317.562 253.052 315.207 253.052 312.302C253.052 309.397 255.407 307.042 258.312 307.042C261.217 307.042 263.572 309.397 263.572 312.302ZM124.641 280.312C124.641 283.217 122.286 285.572 119.381 285.572C116.476 285.572 114.121 283.217 114.121 280.312C114.121 277.407 116.476 275.052 119.381 275.052C122.286 275.052 124.641 277.407 124.641 280.312Z" stroke="#FFC309" stroke-width="1.5"/>
</svg>
